<svg width="75" height="81" viewBox="0 0 75 81" fill="none" xmlns="http://www.w3.org/2000/svg">
<rect width="75" height="81" fill="white"/>
<path d="M33.3844 66.4649C30.9224 66.4649 28.2189 66.0759 25.3224 65.1035L25.1775 65.0548C25.0327 64.9576 22.0879 63.0613 22.0879 59.22C22.0879 56.3026 23.4879 54.8438 23.9224 54.5035C24.1637 54.1631 24.6465 53.531 25.2741 53.8714L24.5982 55.1356C24.8879 55.2814 25.1775 55.1842 25.3224 55.087C25.2741 55.1356 25.1775 55.2814 25.081 55.3787L25.0327 55.4759L24.9362 55.5246C24.8879 55.5732 23.5844 56.5943 23.5844 59.1714C23.5844 61.9429 25.5155 63.4502 25.9017 63.742C37.2948 67.5346 45.9362 61.3108 46.0327 61.2135C46.081 61.1649 48.1569 59.4631 47.6741 56.5943C47.2396 53.9686 44.5362 52.4613 44.4879 52.4613L44.7776 51.8292L44.4396 51.1484H45.1638C45.212 51.1484 48.5431 52.9475 49.1224 56.3512C49.75 60.0952 47.0465 62.2833 46.9017 62.3319C46.5638 62.6723 41.2534 66.4649 33.3844 66.4649Z" fill="#F2ABA7"/>
<path d="M31.4528 56.2058C27.3976 56.2058 24.7907 55.0874 24.0666 54.7471L23.9217 54.6985L23.8252 54.6012C21.1218 51.3434 19.1424 46.3838 17.8873 39.9168C16.1493 30.7755 16.97 23.8223 20.3011 19.3489C23.439 15.1673 27.5424 14.7297 27.7355 14.7297C28.5562 14.5838 29.4252 14.5352 30.2459 14.5352C42.7493 14.5352 44.3425 31.359 44.439 32.4287C44.4873 32.5746 44.4873 32.7205 44.5356 32.8663C46.3218 31.0186 48.6873 29.2196 51.1493 29.2196C52.2597 29.2196 53.2735 29.6086 54.1907 30.2893C54.2873 30.3379 58.1494 33.8875 53.3218 40.1113L53.2735 40.1599C53.2252 40.2085 49.3632 44.0984 47.9632 47.8425C47.9149 47.9397 47.0942 49.9333 45.6459 51.8783L45.5494 51.9755L45.4045 52.0728C40.7218 54.8443 35.9907 56.2058 31.4528 56.2058ZM24.839 53.4829C25.5148 53.8232 27.8804 54.7471 31.4528 54.7471C35.7011 54.7471 40.1425 53.4342 44.5838 50.8572C45.839 49.1067 46.6114 47.3076 46.6114 47.3076C48.0597 43.4177 51.8252 39.5764 52.2114 39.1388C56.1218 34.082 53.3701 31.4563 53.2735 31.359C52.6459 30.8728 51.9218 30.6297 51.1493 30.6297C49.3149 30.6297 46.9976 32.137 44.6321 34.8599L43.6183 36.0269L43.3769 34.5196C43.2804 33.8875 43.1356 33.304 43.039 32.6232V32.526C43.039 32.3801 41.8321 15.8966 30.2942 15.8966C29.57 15.8966 28.7493 15.9453 27.9769 16.0911C27.8804 16.0911 24.2114 16.5288 21.508 20.1755C18.4183 24.3572 17.6942 30.8728 19.3838 39.5764C20.4942 45.7517 22.3286 50.4196 24.839 53.4829Z" fill="#F2ABA7"/>
<path d="M38.9834 35.2004L40.5765 34.9086L40.4317 34.1307L38.8386 34.4224L40.1903 32.4774L39.9489 32.3316C39.8524 32.2343 39.7075 32.1857 39.611 32.1371L39.5144 32.0885L39.4661 32.1857C39.2248 32.5261 39.0317 32.8178 38.7903 33.1582C38.4524 33.6444 38.1144 34.1307 37.7765 34.6169L31.8868 35.6866L33.8661 32.7692C34.2523 32.7205 34.5903 32.6719 34.8799 32.6233C35.2179 32.5747 35.6041 32.5747 35.9903 32.4774H36.1351L36.0386 31.6995L34.3972 31.8939C34.4455 31.8453 34.4454 31.7967 34.4937 31.7481C34.5903 31.5536 34.7351 31.4077 34.8317 31.2132L34.8799 31.116L34.2523 30.6783L33.7213 31.4563L33.3834 29.9976L32.6592 30.1435L33.0937 32.2829L31.1144 35.1517L30.1006 29.7059L31.8868 27.0316L31.2592 26.6426L29.9075 28.5875L29.6179 27.0316L28.8937 27.1774L29.1834 28.7334L27.3489 27.4205L27.2523 27.5664C27.2041 27.6151 27.1558 27.7123 27.1075 27.7609C27.0592 27.8095 27.011 27.9068 26.9627 27.9554L26.9144 28.0527L29.3282 29.8031L30.342 35.2976L27.1558 33.0609L26.5765 30.7756L25.8523 30.9701L26.1903 32.3802L26.0937 32.3316C25.9006 32.1857 25.7075 32.0398 25.4661 31.8939L25.3213 31.7967L24.9351 32.4288L25.7075 32.9637L25.5144 33.0123C25.2248 33.0609 24.9351 33.0609 24.5489 33.1582H24.4041L24.4523 33.4013C24.4523 33.5472 24.5006 33.6444 24.5006 33.7416L24.5489 33.8875L26.673 33.6444L29.9075 35.9297L24.6937 36.9022L22.0868 35.1031L21.9903 35.2004C21.8937 35.3462 21.7972 35.4921 21.7006 35.638L21.6523 35.7352L23.5834 37.0967C23.1489 37.1939 22.6661 37.2912 22.2316 37.3398L21.9903 37.3884L22.1351 38.1178L23.6799 37.8261L23.5834 37.9719C23.1972 38.5068 22.811 39.0416 22.473 39.5765L22.3765 39.6738L23.0041 40.1114L24.742 37.6316L30.0041 36.6591L27.9765 39.6251C27.6868 39.6738 27.4455 39.6738 27.2041 39.7224C26.7696 39.771 26.2868 39.8196 25.8523 39.9169L25.7075 39.9655L25.8041 40.7435L25.9489 40.6949C26.2386 40.6463 26.4799 40.5976 26.7696 40.5976C26.9627 40.5976 27.2041 40.549 27.3972 40.5004L26.8661 41.2783L27.4937 41.716L28.073 40.8894C28.1213 41.0838 28.1696 41.327 28.2179 41.5215C28.2661 41.8132 28.3627 42.0563 28.4592 42.3481L28.5075 42.4939L29.2317 42.2995L28.7972 40.2572L30.8248 37.2912L31.8868 42.9802L30.1006 45.6059L30.1972 45.7031C30.342 45.8004 30.4868 45.9462 30.6316 45.9949L30.7282 46.0435L32.0799 44.0499L32.3696 45.6545L33.0937 45.5086L32.8041 43.904L34.7834 45.1682L35.1213 44.682L35.1696 44.4875L32.7075 42.8343L31.6454 37.1453L35.2179 39.6251L35.7972 41.9105L35.942 41.8618C36.0868 41.8132 36.2799 41.7646 36.4248 41.716L36.5696 41.6674L36.2317 40.2572L37.0524 40.8407L37.1489 40.6949C37.1972 40.6463 37.2455 40.549 37.2937 40.5004C37.342 40.4517 37.3903 40.3545 37.4386 40.3059L37.4868 40.2086L36.6661 39.6251C36.811 39.6251 36.9558 39.5765 37.1006 39.5765C37.3903 39.5279 37.6799 39.5279 37.9696 39.4793H38.1144L38.0179 38.7013H37.873C37.1006 38.7985 36.5213 38.8472 35.7489 38.9444L32.1765 36.4646L37.9696 35.3949L40.6248 37.194L40.7213 37.0481C40.7696 36.9995 40.7696 36.9508 40.8179 36.9022C40.8661 36.8049 40.9627 36.7077 41.011 36.6105L41.0592 36.5132L38.9834 35.2004Z" fill="#F2ABA7"/>
<path d="M26.0462 64.8114L24.4531 54.7462L25.4669 54.5518L27.06 64.6655L26.0462 64.8114Z" fill="#F2ABA7"/>
<path d="M29.57 66.1734L27.832 55.2816L28.8458 55.1357L30.5838 65.9789L29.57 66.1734Z" fill="#F2ABA7"/>
<path d="M36.3289 65.3465L34.6875 54.9896L35.7496 54.8438L37.3909 65.2006L36.3289 65.3465Z" fill="#F2ABA7"/>
<path d="M32.95 65.833L31.3086 55.3302L32.3224 55.1357L34.012 65.6871L32.95 65.833Z" fill="#F2ABA7"/>
<path d="M39.7086 64.86L37.9707 53.8224L38.9845 53.6279L40.7224 64.6655L39.7086 64.86Z" fill="#F2ABA7"/>
<path d="M42.9427 63.5481L41.3496 53.2884L42.3634 53.1426L44.0048 63.4022L42.9427 63.5481Z" fill="#F2ABA7"/>
<path d="M46.1288 61.8944L44.584 52.0724L45.646 51.8779L47.1909 61.6999L46.1288 61.8944Z" fill="#F2ABA7"/>
</svg>
