<svg width="1159" height="328" viewBox="0 0 1159 328" fill="none" xmlns="http://www.w3.org/2000/svg">
<g clip-path="url(#clip0_102_1195)">
<mask id="mask0_102_1195" style="mask-type:luminance" maskUnits="userSpaceOnUse" x="61" y="26" width="1015" height="288">
<path d="M61.5674 26H1075.7V313.711H61.5674V26Z" fill="white"/>
</mask>
<g mask="url(#mask0_102_1195)">
<path d="M896.257 255.455C897.267 258.733 895.76 262.244 892.995 263.502C890.727 265.77 887.449 267.028 884.435 268.023C877.382 270.291 870.329 271.549 863.027 271.549C864.534 273.553 867.315 274.314 869.832 273.802C856.984 281.352 840.377 278.074 827.032 271.798C826.271 271.549 825.261 271.036 824.267 271.036C822.745 271.036 821.75 272.046 820.741 273.056C810.41 282.098 795.061 284.863 782.478 280.093C785.74 276.567 789.266 273.056 792.793 269.53C784.233 277.577 771.898 281.352 760.324 279.332C763.587 276.816 766.368 273.802 768.62 270.539C761.831 274.812 756.798 275.573 748.984 275.573C744.214 275.573 739.927 275.309 735.39 273.553C734.132 273.056 725.075 266.019 725.324 266.019C732.874 263.75 739.678 259.991 745.721 255.206C742.956 254.958 740.424 254.46 739.678 252.954C744.214 251.183 747.725 246.662 750.506 243.897C747.477 244.906 743.453 244.906 740.688 244.145C743.205 242.887 748.238 240.121 750.755 238.366C744.96 236.113 740.424 231.577 738.42 225.798C747.989 222.039 756.549 216.259 763.851 209.222C759.812 209.222 755.788 208.461 752.262 206.954C753.023 207.202 758.056 202.93 758.802 202.185C761.07 200.414 763.09 198.41 765.109 196.406C768.62 192.63 771.649 188.855 774.415 184.583C774.927 183.838 775.425 182.828 776.186 181.569C776.434 180.56 776.931 179.565 777.18 178.804C772.659 178.804 768.62 176.8 767.362 173.522C769.381 173.025 773.654 172.015 775.922 169.001C769.133 167.246 763.851 161.218 762.841 154.181C772.908 153.171 782.478 148.402 789.266 140.852C788.008 140.603 786.75 140.106 785.491 139.593C787.759 137.838 789.779 136.082 792.032 134.327C789.779 134.576 787.262 133.566 785.74 131.81C790.276 130.055 794.3 128.035 798.339 125.27C795.822 125.519 792.544 124.773 791.037 122.256C790.525 121.759 796.568 120.749 802.114 113.215C805.889 108.181 806.899 97.1202 810.161 83.3094C811.171 98.13 811.668 105.167 815.956 109.44C816.204 109.937 816.717 110.449 816.966 110.947C820.492 115.731 825.774 119.242 831.569 120.252C829.798 121.51 828.042 122.256 826.271 123.017C827.794 124.276 833.573 128.796 837.86 126.28C837.612 129.045 835.592 131.562 833.573 132.307C836.089 134.824 839.616 134.078 840.874 133.566C839.616 136.58 837.86 139.096 833.076 139.857C833.821 141.1 835.841 142.871 839.367 144.13C838.606 145.124 835.841 146.631 833.076 146.134C840.874 151.913 848.688 154.429 858.243 155.936C855.229 158.205 851.951 160.209 848.688 162.477C849.434 163.471 852.961 165.988 854.219 165.988C852.199 169.763 847.679 171.27 843.142 170.757C848.424 179.814 856.736 187.1 866.554 190.875C863.54 192.382 860.262 193.64 856.736 194.635C858.755 196.654 861.52 197.912 863.54 197.912C860.511 201.175 857.233 201.175 854.468 200.165C862.282 205.696 872.846 212.982 882.415 212.236C878.889 219.273 872.597 221.277 865.047 222.039C866.802 223.033 868.573 223.545 870.577 223.297C868.325 226.062 864.534 227.305 861.023 227.056C870.329 232.09 880.66 234.855 892.234 234.607C888.956 239.376 885.429 242.638 878.392 245.155C881.654 244.658 884.683 244.145 887.697 243.648C885.181 244.409 885.942 249.178 888.707 249.924C891.472 250.934 894.253 249.178 896.009 246.91C897.018 252.954 893.243 254.958 890.478 256.713C892.482 257.226 894.75 256.713 896.257 255.455ZM252.806 270.788C256.068 268.784 260.107 266.516 259.097 259.727C257.078 262.244 253.816 264.263 250.786 263.253C247.772 262.244 246.763 256.962 249.776 255.967C246.25 256.464 242.739 257.226 239.212 257.723C247.26 254.709 251.547 251.183 255.074 245.652C241.729 245.916 229.891 242.887 219.327 236.859C223.351 237.108 227.623 235.601 230.404 232.587C228.136 232.835 225.868 232.338 224.097 231.329C232.657 230.583 239.958 228.315 243.997 220.019C232.921 221.029 221.083 212.484 212.026 206.208C215.288 207.451 218.815 207.451 222.59 203.692C220.322 203.692 217.059 202.433 214.791 200.165C218.566 199.171 222.341 197.648 226.116 195.893C214.791 191.621 205.222 183.325 199.427 172.777C204.46 173.274 209.758 171.767 212.274 167.495C210.768 167.495 206.728 164.729 205.983 163.471C209.758 160.97 213.284 158.453 217.059 155.936C206.231 154.429 197.159 151.167 188.102 144.875C191.38 145.388 194.393 143.617 195.403 142.623C191.38 141.364 189.112 139.096 188.35 137.589C193.648 136.828 195.9 134.078 197.423 130.303C196.164 130.8 191.877 131.562 189.112 129.045C191.38 128.035 193.648 125.27 194.145 122.256C189.112 125.021 182.571 119.739 180.8 118.481C182.82 117.735 184.824 116.726 186.595 115.467C180.055 114.209 173.747 110.449 169.724 104.919C169.226 104.422 168.978 103.909 168.714 103.412C163.929 98.6271 163.432 90.3469 161.925 73.5068C158.15 88.84 156.892 101.392 152.852 107.187C146.561 115.731 139.772 116.974 140.02 117.735C141.776 120.501 145.566 121.246 148.332 120.998C143.795 124.012 139.011 126.528 133.977 128.548C135.748 130.552 138.513 131.562 141.279 131.313C138.762 133.317 136.245 135.321 133.977 137.341C135.484 137.838 137.007 138.351 138.265 138.848C130.451 147.392 119.374 152.923 107.8 153.932C108.81 161.964 115.102 168.753 122.901 171.021C120.384 174.532 115.351 175.542 113.082 176.287C114.589 180.063 119.126 182.331 124.159 182.331C123.662 183.325 123.398 184.335 122.901 185.344C122.139 186.851 121.394 188.11 120.881 188.607C117.867 193.376 114.092 197.912 110.069 201.92C107.8 204.189 105.284 206.457 102.767 208.461C101.757 209.222 96.2112 214.24 95.2169 213.991C99.2405 215.747 104.025 216.757 108.298 216.757C99.9862 224.804 89.9194 231.329 79.0914 235.601C81.3596 242.141 86.6571 247.423 93.1974 249.924C90.4321 251.944 84.6375 254.958 81.6081 256.713C84.886 257.723 89.4223 257.723 92.9488 256.464C89.9194 259.727 85.6473 264.76 80.6139 266.764C81.6081 268.535 84.3889 269.032 87.4027 269.281C80.6139 274.812 72.5511 279.084 63.9912 281.6C63.7427 281.6 74.058 289.632 75.5805 290.145C80.6139 292.397 85.6473 292.397 91.1778 292.397C99.9862 292.397 106.029 291.652 113.58 286.618C111.063 290.393 107.8 293.92 104.274 296.67C117.619 298.938 131.709 294.665 141.527 285.624C137.504 289.632 133.729 293.656 129.705 297.679C144.293 303.21 161.676 299.947 173.499 289.632C174.757 288.638 176.015 287.379 177.538 287.379C178.796 287.379 179.79 287.877 180.8 288.389C196.164 295.675 215.04 299.186 229.643 290.642C226.878 291.403 223.6 290.393 221.844 288.125C230.14 288.125 238.451 286.618 246.25 284.117C249.776 282.859 253.551 281.6 256.068 278.835C258.585 276.07 260.356 272.807 259.346 269.281C257.591 270.788 255.074 271.301 252.806 270.788ZM630.668 263.005C632.175 267.277 629.922 271.301 626.644 274.314C623.366 277.328 619.094 279.084 614.806 280.591C605.237 283.604 595.418 285.36 585.352 285.36C587.868 287.877 591.643 289.135 594.921 288.389C577.304 298.689 554.639 294.417 536.261 285.624C535.002 285.111 533.744 284.614 532.237 284.614C530.481 284.863 528.959 286.121 527.452 287.379C513.362 299.699 492.218 303.458 474.834 296.934C479.619 292.149 484.404 287.379 489.189 282.61C477.351 293.656 460.247 298.689 444.386 295.924C446.39 294.417 448.161 292.661 449.916 290.89C439.849 295.924 427.514 294.168 416.686 289.896C414.418 289.384 412.15 288.886 410.146 287.877C409.897 287.877 409.897 287.628 409.633 287.628C408.888 287.877 408.126 288.638 407.365 289.135C398.308 297.182 384.466 299.699 372.877 295.427C375.906 292.149 379.184 289.135 382.198 285.873C374.4 293.159 363.323 296.421 352.744 294.665C355.773 292.397 358.29 289.632 360.294 286.618C354.25 290.642 349.73 291.155 342.677 291.155C338.389 291.155 334.365 291.155 330.342 289.384C329.332 288.886 321.021 282.61 321.269 282.61C327.825 280.591 334.117 277.328 339.647 272.807C337.131 272.543 335.127 272.295 334.365 270.788C338.389 269.281 341.667 265.257 344.184 262.741C341.17 263.75 337.643 263.75 335.127 263.005C337.395 261.746 341.916 259.23 344.184 257.723C339.15 255.719 334.878 251.695 333.107 246.413C341.418 243.151 349.466 237.869 356.021 231.577C352.246 231.577 348.72 231.08 345.442 229.573C346.203 230.07 350.724 225.798 351.485 225.301C353.505 223.545 355.509 221.79 357.28 220.019C360.542 216.757 363.323 213.23 365.84 209.471C366.088 208.958 366.585 207.715 367.347 206.705C367.844 205.696 368.108 204.95 368.356 204.189C364.317 204.189 360.806 202.433 359.548 199.419C361.303 198.658 365.327 197.912 367.347 195.147C361.303 193.376 356.519 187.861 355.509 181.569C364.581 180.56 373.141 176.287 379.433 169.514C378.175 169.001 377.165 168.753 375.906 168.256C377.662 166.749 379.682 164.978 381.701 163.471C379.433 163.72 377.413 162.725 375.906 161.218C379.93 159.711 383.705 157.692 387.232 155.175C384.963 155.175 382.198 154.678 380.691 152.41C380.443 151.913 385.725 150.903 390.758 144.13C394.285 139.593 395.03 129.542 398.06 116.974C399.069 130.303 399.567 136.828 403.342 140.603C403.59 141.1 403.854 141.364 404.103 141.862C407.365 146.134 412.15 149.148 417.448 150.157C415.925 151.167 414.418 151.913 412.663 152.674C413.921 153.668 419.203 157.94 423.227 155.688C422.729 158.453 420.974 160.457 419.203 161.218C421.471 163.222 424.749 162.477 425.743 162.213C424.749 165.242 422.978 167.495 418.706 168.007C419.203 169.25 420.974 171.021 424.236 172.015C423.491 172.777 420.974 174.035 418.457 173.786C425.495 178.804 432.796 181.321 441.356 182.579C438.342 184.583 435.562 186.603 432.548 188.607C433.309 189.617 436.323 191.869 437.581 191.869C435.826 195.147 431.538 196.654 427.514 196.141C430.28 201.175 434.055 205.447 438.591 208.709C442.366 205.944 445.892 202.93 449.419 199.668C443.873 199.668 438.591 198.658 433.557 196.406C434.816 196.903 441.605 190.875 442.615 189.865C445.644 187.349 448.658 184.583 451.423 181.818C456.456 177.049 460.744 171.518 464.519 165.739C465.016 164.978 465.777 163.471 466.787 161.715C467.284 160.706 467.797 159.447 468.294 158.205C462.002 157.94 456.72 155.439 454.949 150.903C457.715 150.157 463.758 148.899 466.787 144.627C457.466 142.11 449.916 133.814 448.658 124.276C462.5 122.769 475.844 116.228 485.165 105.929C483.394 105.167 481.639 104.67 479.868 103.909C482.649 101.392 485.662 99.1398 488.692 96.6231C485.662 97.1202 482.136 95.8774 480.132 93.3607C486.424 91.0926 492.218 88.0787 497.5 84.3037C493.974 84.5678 489.686 83.558 487.433 80.2801C486.921 79.5344 494.984 78.0275 502.782 67.7277C508.064 60.6902 509.323 45.6056 513.859 26.4973C515.366 46.8639 516.127 56.6666 521.922 62.4457C522.17 63.1914 522.667 63.7041 523.18 64.4497C527.965 70.9901 535.266 75.5108 543.314 77.0177C541.045 78.5246 538.777 79.783 536.261 80.7927C538.28 82.2997 546.343 88.5759 552.371 85.3135C551.873 89.3371 549.108 92.5995 546.343 93.6093C549.605 97.1202 554.639 95.8774 556.161 95.3647C554.39 99.8855 551.873 103.163 545.333 104.158C546.343 105.929 548.86 108.43 553.893 110.201C552.635 111.459 548.86 113.463 545.085 112.966C555.897 120.501 566.725 124.276 579.821 126.28C575.285 129.294 571.013 132.307 566.476 135.321C567.486 137.092 572.271 140.355 574.027 140.355C571.261 145.637 564.705 147.641 558.678 146.895C565.715 159.711 577.304 169.514 590.898 174.781C586.61 177.049 582.089 178.804 577.304 180.063C580.07 182.579 583.845 184.335 586.61 184.335C582.338 188.855 577.802 188.855 574.027 187.349C585.103 195.147 599.209 205.198 612.538 204.189C607.769 213.991 598.945 216.757 588.63 217.766C590.898 219.025 593.663 219.522 596.18 219.273C592.653 222.784 587.62 224.54 582.835 224.291C595.418 231.329 609.773 235.352 625.634 234.855C621.098 241.131 616.313 245.652 606.495 249.178C610.783 248.681 614.806 247.92 619.094 247.159C615.319 248.169 616.577 254.709 620.352 255.719C624.127 256.962 627.903 254.46 630.419 251.431C631.429 259.727 626.396 262.244 622.621 264.76C625.386 265.506 628.664 264.76 630.668 263.005ZM446.141 288.389C447.399 289.384 449.155 290.145 450.926 289.896C451.687 289.135 452.433 288.125 453.194 287.379C451.423 287.628 449.667 287.628 447.896 287.877C447.151 288.125 446.638 288.389 446.141 288.389ZM1072.99 284.863C1071.48 286.121 1069.46 286.618 1067.44 286.121C1070.22 284.366 1073.48 282.61 1072.74 276.816C1070.97 278.835 1068.2 280.591 1065.68 279.845C1063.17 279.084 1062.16 274.563 1064.92 273.802C1061.91 274.314 1059.14 274.812 1056.11 275.309C1062.92 272.807 1066.18 269.778 1069.46 265.257C1058.38 265.506 1048.56 263.005 1039.76 257.971C1043.03 258.22 1046.54 256.962 1048.81 254.46C1047.06 254.709 1045.04 254.196 1043.53 253.451C1050.58 252.689 1056.63 250.934 1060.15 244.145C1050.83 244.906 1041.01 237.869 1033.46 232.587C1036.23 233.597 1039.26 233.597 1042.27 230.583C1040.25 230.583 1037.74 229.325 1035.73 227.569C1038.99 226.808 1042.02 225.549 1045.04 224.043C1035.73 220.532 1027.67 213.494 1022.88 204.95C1027.17 205.447 1031.44 203.94 1033.46 200.414C1032.21 200.414 1028.93 198.161 1028.18 196.903C1031.2 194.899 1034.21 192.63 1037.24 190.611C1028.18 189.368 1020.62 186.603 1013.31 181.321C1016.1 181.818 1018.61 180.311 1019.36 179.301C1015.85 178.058 1014.08 176.287 1013.31 175.029C1017.85 174.532 1019.62 172.015 1020.88 169.001C1019.87 169.514 1016.34 170.26 1014.08 167.743C1016.1 166.997 1017.85 164.729 1018.36 161.964C1014.32 164.232 1008.79 159.96 1007.29 158.95C1009.04 158.205 1010.55 157.443 1012.32 156.434C1006.77 155.439 1001.74 152.161 998.463 147.641C998.214 147.143 997.966 146.631 997.469 146.382C993.43 142.359 992.933 135.585 991.923 121.51C988.645 134.824 987.899 145.124 984.373 149.909C979.091 157.195 973.296 158.205 973.793 158.702C975.316 160.97 978.329 161.715 980.846 161.467C977.071 163.984 973.047 166.236 968.76 167.743C970.267 169.514 972.535 170.26 974.803 170.011C972.783 171.767 970.779 173.274 968.76 175.029C970.018 175.542 971.276 175.79 972.286 176.287C965.746 183.325 956.673 187.861 947.119 188.855C948.114 195.396 953.162 201.175 959.703 202.93C957.683 205.696 953.411 206.705 951.64 207.202C952.898 210.48 956.673 212.236 960.961 212.236C960.713 212.982 960.2 213.991 959.951 214.753C959.19 215.995 958.693 217.005 958.444 217.502C955.928 221.526 952.898 225.301 949.372 228.563C947.368 230.583 945.348 232.338 943.344 234.094C942.583 234.607 937.798 238.879 937.037 238.615C940.563 240.121 944.338 240.883 948.114 240.883C941.076 247.672 933.013 252.954 923.956 256.464C925.96 261.995 930.248 266.267 935.53 268.535C933.262 270.291 928.477 272.807 925.96 274.05C928.741 274.812 932.516 274.812 935.53 273.802C933.013 276.567 929.487 280.839 925.215 282.346C925.96 283.853 928.229 284.366 930.745 284.366C924.966 288.886 918.41 292.397 911.373 294.665C911.109 294.665 919.669 301.454 920.927 301.951C925.215 303.707 929.238 303.971 933.775 303.971C941.076 303.971 946.109 303.21 952.401 299.186C950.382 302.464 947.616 305.229 944.603 307.731C955.679 309.75 967.501 306.224 975.564 298.441C972.286 301.703 969.008 304.965 965.746 308.492C977.832 313.013 992.42 310.496 1001.99 301.951C1003 301.206 1004.01 300.196 1005.27 299.947C1006.28 299.947 1007.02 300.196 1008.03 300.693C1020.88 306.736 1036.48 309.75 1048.56 302.713C1046.3 303.21 1043.53 302.464 1042.02 300.693C1048.81 300.693 1055.87 299.435 1062.41 297.431C1065.44 296.421 1068.45 295.163 1070.72 293.159C1072.49 291.155 1074 287.628 1072.99 284.863Z" fill="#F2ABA7"/>
</g>
<path d="M974.352 278.952C975.098 281.468 974.088 284.233 972.084 285.989C970.312 287.744 967.795 288.754 965.278 289.499C959.747 291.27 954.201 292.264 948.405 292.264C949.664 293.787 951.932 294.532 953.952 294.035C943.884 299.814 930.786 297.546 920.205 292.528C919.46 292.264 918.698 291.767 917.953 291.767C916.943 291.767 915.933 292.528 915.171 293.274C907.123 300.311 895.035 302.579 885.216 298.804C887.982 296.039 890.763 293.274 893.528 290.509C886.723 296.8 876.904 299.814 867.846 298.307C870.363 296.287 872.631 294.035 874.387 291.27C869.104 294.781 865.08 295.293 859.036 295.293C855.26 295.293 851.734 295.029 848.207 293.787C847.197 293.274 840.143 287.744 840.407 287.744C846.187 285.989 851.734 283.224 856.519 279.2C854.251 278.952 852.479 278.703 851.734 277.445C855.26 276.187 858.026 272.676 860.294 270.408C857.777 271.169 854.748 271.169 852.479 270.657C854.499 269.398 858.523 267.395 860.543 265.888C856.006 264.132 852.479 260.358 850.972 256.086C858.523 253.072 865.328 248.552 871.124 243.022C868.094 243.022 864.816 242.509 862.05 241.251C862.811 241.515 866.587 237.989 867.333 237.492C869.104 235.985 870.86 234.478 872.382 232.972C875.148 230.207 877.665 226.929 879.933 223.667C880.182 223.17 880.679 222.409 881.192 221.399C881.44 220.653 881.689 219.892 881.938 219.395C878.411 219.395 875.397 217.888 874.387 215.123C875.894 214.626 879.421 213.865 881.192 211.597C875.894 210.09 871.621 205.321 870.86 199.791C878.675 199.046 886.474 195.271 891.757 189.244C890.763 188.98 889.753 188.483 888.743 188.234C890.499 186.727 892.27 185.469 893.777 183.962C892.021 184.211 890.001 183.465 888.743 181.943C892.27 180.7 895.533 178.929 898.562 176.677C896.542 176.925 894.025 176.164 892.767 174.409C892.518 173.912 897.055 173.151 901.576 167.124C904.606 163.1 905.103 154.557 907.869 143.497C908.879 155.054 909.127 160.848 912.406 164.11C912.654 164.607 912.919 164.856 913.167 165.12C915.933 168.879 920.205 171.395 924.742 172.405C923.484 173.151 922.225 173.912 920.718 174.409C921.977 175.17 926.513 178.929 929.776 176.925C929.528 179.178 928.021 180.949 926.249 181.694C928.021 183.465 931.035 182.953 931.796 182.704C930.786 185.221 929.279 187.224 925.504 187.737C926.001 188.731 927.508 190.238 930.538 191.248C929.776 192.009 927.772 193.003 925.504 192.754C931.547 197.275 937.84 199.294 945.391 200.552C942.874 202.308 940.357 204.063 937.84 205.818C938.337 206.828 941.103 208.583 942.113 208.583C940.357 211.597 936.83 212.607 933.303 212.358C937.327 219.644 943.884 225.422 951.684 228.187C949.166 229.445 946.649 230.455 943.884 231.201C945.391 232.707 947.659 233.717 949.167 233.717C946.649 236.234 944.132 236.234 941.864 235.473C948.157 239.993 956.22 245.787 963.771 245.026C961.006 250.556 955.972 252.311 949.928 252.824C951.186 253.569 952.693 253.818 954.201 253.818C952.181 255.837 949.415 256.832 946.649 256.832C953.952 260.855 962 263.123 971.074 262.874C968.557 266.633 965.791 269.15 960.244 271.169C962.761 270.657 965.03 270.408 967.547 269.911C965.527 270.657 966.04 274.183 968.308 274.928C970.312 275.69 972.581 274.183 974.088 272.412C974.849 277.196 971.82 278.703 969.815 279.961C971.571 280.458 973.342 279.961 974.352 278.952ZM1196.16 306.089C1194.9 307.348 1193.39 307.845 1191.62 308.357C1188.1 309.616 1184.32 310.113 1180.54 310.113C1181.31 311.122 1182.81 311.619 1184.07 311.122C1177.53 314.881 1168.97 313.375 1161.92 310.113C1161.42 309.864 1160.91 309.616 1160.41 309.616C1159.65 309.616 1159.15 310.113 1158.64 310.61C1157.64 311.619 1156.12 312.381 1154.86 313.126L1154.61 313.375C1152.86 315.146 1150.34 316.14 1147.82 316.901C1142.28 318.656 1136.75 319.666 1130.95 319.666C1132.21 321.173 1134.48 321.918 1136.48 321.421C1126.41 327.2 1113.33 324.947 1102.75 319.914C1101.99 319.666 1101.24 319.153 1100.48 319.153C1099.47 319.153 1098.46 319.914 1097.72 320.676C1089.65 327.697 1077.56 329.965 1067.75 326.19C1070.53 323.425 1073.29 320.676 1076.06 317.911C1069.27 324.186 1059.45 327.2 1050.37 325.693C1052.89 323.689 1055.16 321.421 1056.93 318.656C1051.63 322.182 1047.61 322.679 1041.57 322.679C1037.79 322.679 1034.26 322.431 1030.74 321.173C1029.74 320.676 1022.69 315.146 1022.94 315.146C1028.73 313.375 1034.26 310.61 1039.05 306.602C1036.78 306.338 1035.02 306.089 1034.26 304.831C1037.79 303.573 1040.56 300.062 1042.82 297.794C1040.31 298.555 1037.29 298.555 1035.02 298.058C1037.03 296.8 1041.07 294.781 1043.07 293.274C1038.55 291.519 1035.02 287.744 1033.52 283.472C1041.07 280.458 1047.86 275.938 1053.65 270.408C1050.64 270.408 1047.36 269.911 1044.6 268.653C1045.34 268.901 1049.12 265.375 1049.88 264.878C1051.63 263.371 1053.4 261.864 1054.91 260.358C1057.68 257.593 1060.19 254.331 1062.46 251.053C1062.71 250.556 1063.22 249.795 1063.72 248.801C1063.97 248.039 1064.23 247.294 1064.48 246.781C1060.96 246.781 1057.93 245.274 1056.93 242.509C1058.44 242.012 1061.97 241.251 1063.72 238.999C1058.44 237.492 1054.15 232.707 1053.4 227.177C1061.2 226.432 1069.02 222.657 1074.3 216.63C1073.29 216.381 1072.28 215.869 1071.27 215.62C1073.04 214.113 1074.8 212.855 1076.31 211.348C1074.55 211.597 1072.53 210.851 1071.27 209.345C1074.8 208.086 1078.08 206.331 1081.09 204.063C1079.09 204.312 1076.57 203.566 1075.31 201.795C1075.05 201.298 1079.58 200.552 1084.12 194.51C1087.14 190.487 1087.65 181.943 1090.41 170.898C1091.42 182.456 1091.67 188.234 1094.95 191.496C1095.2 192.009 1095.45 192.257 1095.7 192.506C1098.46 196.281 1102.75 198.782 1107.29 199.791C1106.03 200.552 1104.77 201.298 1103.25 201.795C1104.51 202.556 1109.04 206.331 1112.32 204.312C1112.07 206.58 1110.55 208.335 1108.79 209.096C1110.55 210.851 1113.58 210.354 1114.33 210.09C1113.33 212.607 1111.81 214.626 1108.03 215.123C1108.55 216.133 1110.05 217.64 1113.07 218.634C1112.32 219.395 1110.3 220.405 1108.03 220.141C1114.08 224.676 1120.37 226.68 1127.92 227.939C1125.4 229.694 1122.89 231.449 1120.37 233.22C1120.88 234.214 1123.65 235.985 1124.66 235.985C1122.89 238.999 1119.36 239.993 1115.85 239.744C1119.62 246.533 1125.92 252.063 1132.97 255.076C1130.95 253.569 1129.44 251.301 1129.18 248.801C1134.48 248.288 1139.51 245.787 1143.04 242.012C1142.28 241.764 1141.78 241.515 1141.02 241.251C1142.03 240.257 1143.29 239.496 1144.3 238.486C1143.04 238.486 1141.78 238.238 1141.02 237.243C1143.29 236.482 1145.56 235.224 1147.56 233.717C1146.3 233.717 1144.55 233.469 1143.78 232.21C1143.54 231.962 1146.56 231.449 1149.58 227.442C1151.6 224.925 1151.85 219.146 1153.6 211.861C1154.12 219.395 1154.36 223.17 1156.63 225.422C1156.88 225.671 1156.88 225.935 1157.13 226.183C1158.9 228.684 1161.67 230.455 1164.68 230.952C1163.94 231.449 1162.93 231.962 1161.92 232.459C1162.68 232.972 1165.69 235.472 1167.96 234.214C1167.71 235.721 1166.7 236.979 1165.69 237.243C1166.95 238.486 1168.72 237.989 1169.47 237.74C1168.97 239.496 1167.96 240.754 1165.44 241.003C1165.69 241.764 1166.7 242.758 1168.72 243.27C1168.21 243.768 1166.95 244.529 1165.44 244.28C1169.47 247.294 1173.49 248.552 1178.54 249.298C1176.77 250.556 1175.26 251.566 1173.49 252.824C1174 253.569 1175.76 254.579 1176.27 254.579C1175.26 256.583 1172.74 257.344 1170.48 257.096C1173.24 261.864 1177.53 265.639 1182.56 267.643C1181.06 268.404 1179.29 269.15 1177.53 269.647C1178.54 270.657 1180.05 271.418 1181.06 271.418C1179.29 273.173 1177.78 273.173 1176.27 272.412C1180.3 275.441 1185.84 279.2 1190.61 278.703C1188.86 282.478 1185.33 283.472 1181.55 283.721C1182.32 284.233 1183.31 284.482 1184.32 284.233C1183.06 285.491 1181.06 286.237 1179.29 286.237C1184.07 289.002 1189.35 290.26 1195.4 290.26C1193.64 292.777 1191.87 294.284 1188.1 295.79C1189.62 295.542 1191.37 295.293 1192.88 295.029C1191.37 295.542 1191.87 297.794 1193.39 298.307C1194.9 298.804 1196.16 297.794 1197.17 296.8C1197.67 299.814 1195.66 300.808 1194.4 301.818C1195.4 302.066 1196.66 301.818 1197.42 301.072C1198.18 303.324 1197.42 305.095 1196.16 306.089ZM1131.71 261.616C1129.18 264.132 1126.66 264.132 1124.41 263.371C1126.93 265.127 1129.44 266.897 1132.21 268.653C1133.22 267.643 1133.96 266.385 1134.73 265.127C1134.97 264.878 1135.22 264.381 1135.74 263.62C1135.98 263.123 1135.98 262.61 1136.23 262.362C1133.96 262.362 1131.96 261.367 1131.2 259.597C1132.21 259.348 1134.48 258.851 1135.74 257.096C1134.97 256.832 1134.48 256.583 1133.72 256.334C1131.45 257.593 1128.93 258.602 1126.16 259.348C1127.92 260.855 1129.94 261.616 1131.71 261.616ZM140.975 305.095C143.492 303.573 146.506 301.818 145.76 296.8C144.238 298.555 141.721 300.311 139.452 299.565C137.199 298.804 136.438 294.781 138.707 294.035C136.19 294.532 133.408 294.781 130.891 295.293C136.935 293.025 140.214 290.26 142.979 286.237C132.911 286.486 124.102 284.233 116.038 279.713C119.068 279.961 122.33 278.703 124.35 276.435C122.595 276.684 121.072 276.187 119.565 275.441C126.122 274.928 131.404 273.173 134.667 266.897C126.37 267.643 117.296 261.367 110.507 256.334C113.024 257.344 115.541 257.344 118.306 254.579C116.551 254.579 114.282 253.569 112.511 251.814C115.541 251.053 118.306 250.059 121.072 248.552C112.511 245.274 105.473 238.999 100.936 231.201C104.711 231.713 108.736 230.455 110.507 227.177C109.497 227.177 106.483 225.174 105.721 224.164C108.487 222.16 111.253 220.405 114.034 218.385C105.721 217.127 98.9161 214.875 92.375 210.09C94.892 210.354 97.1604 209.096 97.9217 208.335C94.892 207.325 93.1363 205.57 92.6236 204.56C96.6632 204.063 98.4189 201.795 99.4288 199.046C98.4189 199.294 95.4047 200.04 93.1363 198.036C94.892 197.275 96.6632 195.271 96.9118 193.003C93.1363 195.022 88.1023 191.248 86.8438 190.238C88.3509 189.741 89.858 188.98 91.3651 187.986C86.3311 186.976 81.7943 184.211 78.7801 179.939C78.5315 179.442 78.2829 179.178 78.0188 178.681C74.2433 175.17 73.9947 168.879 72.9848 156.312C69.9706 168.382 69.2092 177.671 66.1951 181.943C61.4096 188.483 56.3756 189.492 56.6242 189.741C57.8827 191.745 60.6483 192.506 62.9167 192.257C59.6384 194.51 55.8629 196.529 52.0874 198.036C53.3459 199.543 55.6143 200.288 57.6341 200.04C55.8629 201.547 53.8586 203.053 52.0874 204.56C53.0973 205.073 54.3558 205.321 55.3657 205.818C49.5704 212.358 41.2736 216.381 32.4486 217.127C33.2099 223.17 37.9953 228.436 43.7906 229.942C42.0194 232.459 37.9953 233.469 36.4882 233.966C37.4826 236.731 41.0095 238.486 44.785 238.486C44.5364 239.247 44.2878 239.993 44.0392 240.754C43.2779 241.764 42.7807 242.758 42.5321 243.27C40.2637 246.781 37.4826 250.307 34.4684 253.321C32.7127 255.076 30.9415 256.832 28.9216 258.338C28.1759 258.851 23.8876 262.874 23.1419 262.362C26.156 263.62 29.683 264.381 33.2099 264.381C26.9174 270.408 19.3663 275.441 11.3026 278.703C13.0738 283.721 17.0979 287.744 21.8834 289.499C19.8635 291.022 15.3267 293.274 13.0738 294.532C15.5908 295.293 18.8536 295.293 21.6348 294.284C19.3663 296.8 16.088 300.559 12.3125 302.066C13.0738 303.324 15.0781 303.837 17.3465 304.085C12.0639 308.357 6.2686 311.371 -0.272506 313.375C-0.521099 313.375 7.27851 319.417 8.28842 319.914C12.0639 321.421 15.8394 321.67 20.1121 321.67C26.9174 321.67 31.19 321.173 36.9854 317.398C34.9656 320.412 32.7127 322.928 29.9315 324.947C39.9996 326.703 50.5803 323.425 57.8827 316.404C54.8685 319.417 51.8388 322.431 48.8246 325.444C59.9025 329.468 72.9848 327.2 81.7943 319.417C82.5556 318.656 83.5655 317.911 84.824 317.647C85.5853 317.647 86.5797 317.911 87.341 318.408C98.9161 323.938 113.024 326.703 124.102 320.163C122.082 320.676 119.565 319.914 118.058 318.408C124.35 318.408 130.643 317.398 136.438 315.394C139.204 314.633 141.969 313.375 143.989 311.371C146.009 309.367 147.267 306.338 146.506 303.573C144.75 305.095 142.731 305.592 140.975 305.095ZM401.563 270.657C404.328 268.901 408.104 266.897 407.342 260.855C405.587 263.123 402.557 264.878 399.791 264.132C397.026 263.371 396.264 258.602 398.781 257.841C395.767 258.338 392.489 258.851 389.475 259.348C396.777 256.583 400.304 253.569 403.567 248.801C391.743 249.049 381.162 246.284 371.84 241.003C375.367 241.251 379.143 239.744 381.66 237.243C379.655 237.492 377.636 236.979 376.128 235.985C383.679 235.224 390.221 233.22 393.747 225.935C383.928 226.68 373.363 219.146 365.299 213.616C368.065 214.626 371.343 214.626 374.621 211.348C372.602 211.348 369.836 210.09 367.816 208.086C371.343 207.077 374.621 205.818 377.884 204.312C367.816 200.552 359.255 193.003 354.221 183.714C358.758 184.211 363.543 182.704 365.548 178.929C364.289 178.929 360.762 176.428 360.017 175.17C363.279 172.902 366.558 170.634 369.836 168.382C360.265 166.875 352.201 164.11 344.153 158.58C346.919 159.077 349.684 157.57 350.694 156.576C347.167 155.318 345.163 153.298 344.402 152.04C349.187 151.295 351.207 148.778 352.466 145.516C351.207 146.013 347.68 146.774 345.163 144.258C347.167 143.497 349.187 140.98 349.684 138.231C345.412 140.732 339.368 135.963 337.861 134.953C339.616 134.207 341.388 133.446 343.143 132.188C337.348 131.194 331.817 127.668 328.29 122.899C328.041 122.386 327.529 121.889 327.28 121.392C323.007 117.12 322.495 109.819 321.236 95C317.709 109.074 316.963 120.382 313.188 125.4C307.392 133.198 301.597 134.207 301.846 134.704C303.368 137.221 306.631 137.967 309.412 137.718C305.373 140.483 301.1 142.751 296.563 144.506C298.07 146.262 300.587 147.271 302.856 147.023C300.587 148.778 298.583 150.533 296.315 152.553C297.573 153.05 298.832 153.547 300.09 154.06C293.036 161.594 283.481 166.627 273.149 167.621C274.159 174.658 279.69 180.949 286.495 182.704C284.227 185.718 279.69 186.727 277.686 187.473C278.944 190.999 282.968 192.754 287.505 192.754C287.256 193.764 286.744 194.51 286.495 195.519C285.734 196.778 284.988 198.036 284.739 198.533C281.958 202.805 278.696 206.828 275.169 210.354C273.149 212.358 270.88 214.362 268.612 216.133C267.866 216.878 262.832 221.399 261.822 220.902C265.598 222.409 269.622 223.418 273.662 223.17C266.095 230.455 257.285 235.985 247.715 239.993C249.734 245.787 254.52 250.556 260.315 252.824C257.798 254.579 252.764 257.344 249.983 258.851C252.764 259.597 256.788 259.597 260.051 258.602C257.285 261.616 253.51 266.136 249.237 267.643C249.983 269.15 252.5 269.647 255.281 269.911C249.237 274.928 242.183 278.455 234.632 280.707C234.384 280.707 243.69 287.992 244.7 288.505C249.237 290.509 253.759 290.509 258.544 290.509C266.359 290.509 271.642 289.763 278.431 285.491C276.179 289.002 273.397 292.016 270.135 294.532C281.958 296.536 294.559 292.777 303.12 284.73C299.593 288.256 296.066 291.767 292.539 295.293C305.373 300.062 320.987 297.297 331.304 288.256C332.314 287.247 333.572 286.237 334.831 286.237C335.841 286.237 336.851 286.75 337.861 286.998C351.456 293.522 368.329 296.536 381.162 289.002C378.645 289.499 375.88 288.754 374.109 286.75C381.411 286.75 388.713 285.491 395.767 283.224C399.046 282.214 402.06 280.956 404.577 278.455C407.094 276.187 408.352 272.676 407.342 269.398C406.084 270.657 403.567 271.169 401.563 270.657ZM669.189 244.016C671.457 242.509 674.223 241.251 673.477 236.482C671.97 238.238 669.95 239.496 667.681 238.999C665.662 238.238 664.916 234.727 666.92 234.214C664.667 234.727 662.15 234.975 659.882 235.473C665.413 233.469 668.179 230.952 670.711 227.442C661.638 227.69 653.589 225.422 646.536 221.399C649.301 221.663 652.067 220.653 654.087 218.634C652.579 218.898 651.072 218.385 649.814 217.64C655.594 217.127 660.628 215.62 663.409 209.842C655.842 210.354 647.794 204.824 641.75 200.288C644.019 201.05 646.287 201.05 648.804 198.533C647.281 198.533 645.028 197.523 643.506 196.017C646.287 195.271 648.804 194.261 651.072 193.003C643.506 189.989 636.965 184.459 632.941 177.174C636.468 177.671 639.994 176.428 641.75 173.663C640.74 173.663 637.975 171.893 637.462 170.898C639.994 169.127 642.511 167.372 645.028 165.865C637.726 164.856 631.434 162.603 625.39 158.331C627.642 158.58 629.662 157.57 630.424 156.825C627.642 155.815 626.135 154.308 625.638 153.298C629.414 152.801 630.921 150.782 631.682 148.281C630.672 148.53 627.907 149.275 626.135 147.271C627.642 146.774 629.165 144.755 629.662 142.502C626.384 144.506 621.863 140.732 620.604 139.986C622.111 139.473 623.37 138.728 624.628 137.967C620.091 137.221 616.067 134.456 613.302 130.681C613.053 130.433 612.789 129.936 612.54 129.672C609.278 126.409 609.014 120.879 608.019 109.322C605.487 120.134 604.741 128.677 601.711 132.701C597.438 138.479 592.653 139.473 592.902 139.737C594.16 141.493 596.677 142.238 598.697 141.99C595.667 144.009 592.404 145.765 588.877 147.023C590.136 148.281 591.892 149.027 593.663 149.027C591.892 150.533 590.385 151.792 588.629 153.298C589.639 153.547 590.633 154.06 591.643 154.308C586.36 160.087 578.809 163.862 570.994 164.607C571.756 169.889 576.044 174.658 581.326 176.164C579.555 178.432 576.044 179.178 574.77 179.69C575.78 182.207 578.809 183.714 582.336 183.714C582.072 184.459 581.824 184.972 581.575 185.718C581.078 186.727 580.565 187.473 580.317 187.986C578.297 191.248 575.78 194.261 573.014 197.026C571.507 198.533 569.736 200.04 567.98 201.547C567.483 202.059 563.443 205.57 562.946 205.321C565.712 206.58 568.741 207.077 572.004 207.077C566.224 212.607 559.668 216.878 552.117 219.892C553.624 224.412 557.399 227.939 561.688 229.694C559.916 231.201 555.892 233.22 553.872 234.214C556.141 234.727 559.171 234.727 561.688 233.966C559.668 236.234 556.654 239.744 553.375 241.003C553.872 242.261 555.892 242.509 557.912 242.758C553.127 246.533 547.844 249.298 542.049 251.053C541.8 251.053 548.838 256.583 549.848 256.832C553.375 258.338 556.654 258.338 560.429 258.338C566.473 258.338 570.497 257.841 575.531 254.331C573.775 256.832 571.507 259.348 569.239 261.103C578.297 262.61 587.868 259.861 594.673 253.569C591.892 256.334 589.375 259.099 586.609 261.616C596.429 265.375 608.268 263.123 616.316 256.334C617.077 255.589 618.087 254.828 619.097 254.828C619.843 254.828 620.604 255.076 621.35 255.589C631.682 260.606 644.516 262.874 654.584 257.096C652.579 257.593 650.56 256.832 649.301 255.325C654.848 255.325 660.628 254.331 665.926 252.56C668.443 251.814 670.711 250.804 672.715 249.049C674.487 247.294 675.745 244.529 674.984 242.012C672.467 244.016 670.711 244.529 669.189 244.016Z" fill="#F7C3C2"/>
<mask id="mask1_102_1195" style="mask-type:luminance" maskUnits="userSpaceOnUse" x="-8" y="242" width="1259" height="214">
<path d="M-8 242.126H1250.72V455.517H-8V242.126Z" fill="white"/>
</mask>
<g mask="url(#mask1_102_1195)">
<path d="M1250.72 297.68C1190.29 288.126 1094.64 323.826 925.463 286.122C752.51 247.424 769.132 237.869 668.185 247.424C567.237 256.962 533.495 283.356 338.653 280.591C143.795 277.826 81.1107 282.859 -7.75049 323.561V453.762L477.351 454.259L707.458 454.507L1250.72 455.005V297.68Z" fill="#FCCAC7"/>
</g>
<mask id="mask2_102_1195" style="mask-type:luminance" maskUnits="userSpaceOnUse" x="276" y="262" width="581" height="194">
<path d="M276.325 262.01H856.968V455.516H276.325V262.01Z" fill="white"/>
</mask>
<g mask="url(#mask2_102_1195)">
<path d="M852.96 346.692C837.347 312.764 637.72 260.488 552.883 265.257C604.988 270.042 743.701 306.223 736.4 346.692C729.098 387.146 601.725 375.836 500.016 365.288C408.126 355.982 316.499 369.809 278.982 374.081C335.623 387.146 411.901 419.071 477.863 454.506H707.458C708.716 453 710.471 451.741 711.978 450.731C730.108 433.643 777.179 402.728 844.649 376.598C853.209 366.049 856.984 355.734 852.96 346.692Z" fill="#FFECEB"/>
</g>
</g>
<defs>
<clipPath id="clip0_102_1195">
<rect width="1159" height="328" fill="white"/>
</clipPath>
</defs>
</svg>
