<svg width="1289" height="325" viewBox="0 0 1289 325" fill="none" xmlns="http://www.w3.org/2000/svg">
<g clip-path="url(#clip0_95_1793)">
<mask id="mask0_95_1793" style="mask-type:luminance" maskUnits="userSpaceOnUse" x="82" y="26" width="1015" height="288">
<path d="M82.5674 26H1096.7V313.711H82.5674V26Z" fill="white"/>
</mask>
<g mask="url(#mask0_95_1793)">
<path d="M917.257 255.455C918.267 258.733 916.76 262.243 913.995 263.502C911.727 265.77 908.449 267.028 905.435 268.023C898.382 270.291 891.329 271.549 884.027 271.549C885.534 273.553 888.315 274.314 890.832 273.802C877.984 281.352 861.377 278.074 848.032 271.798C847.271 271.549 846.261 271.036 845.267 271.036C843.745 271.036 842.75 272.046 841.741 273.056C831.41 282.097 816.061 284.863 803.478 280.093C806.74 276.567 810.266 273.056 813.793 269.529C805.233 277.577 792.898 281.352 781.324 279.332C784.587 276.815 787.368 273.802 789.62 270.539C782.831 274.811 777.798 275.573 769.984 275.573C765.214 275.573 760.927 275.309 756.39 273.553C755.132 273.056 746.075 266.019 746.324 266.019C753.874 263.75 760.678 259.991 766.721 255.206C763.956 254.957 761.424 254.46 760.678 252.953C765.214 251.182 768.725 246.662 771.506 243.896C768.477 244.906 764.453 244.906 761.688 244.145C764.205 242.887 769.238 240.121 771.755 238.366C765.96 236.113 761.424 231.577 759.42 225.798C768.989 222.038 777.549 216.259 784.851 209.222C780.812 209.222 776.788 208.461 773.262 206.954C774.023 207.202 779.056 202.93 779.802 202.184C782.07 200.413 784.09 198.409 786.109 196.405C789.62 192.63 792.649 188.855 795.415 184.583C795.927 183.837 796.425 182.828 797.186 181.569C797.434 180.56 797.931 179.565 798.18 178.804C793.659 178.804 789.62 176.8 788.362 173.522C790.381 173.025 794.654 172.015 796.922 169.001C790.133 167.246 784.851 161.218 783.841 154.181C793.908 153.171 803.478 148.402 810.266 140.852C809.008 140.603 807.75 140.106 806.491 139.593C808.759 137.838 810.779 136.082 813.032 134.327C810.779 134.575 808.262 133.566 806.74 131.81C811.276 130.055 815.3 128.035 819.339 125.27C816.822 125.518 813.544 124.773 812.037 122.256C811.525 121.759 817.568 120.749 823.114 113.215C826.889 108.181 827.899 97.1201 831.161 83.3093C832.171 98.1299 832.668 105.167 836.956 109.439C837.204 109.937 837.717 110.449 837.966 110.946C841.492 115.731 846.774 119.242 852.569 120.252C850.798 121.51 849.042 122.256 847.271 123.017C848.794 124.276 854.573 128.796 858.86 126.28C858.612 129.045 856.592 131.562 854.573 132.307C857.089 134.824 860.616 134.078 861.874 133.566C860.616 136.579 858.86 139.096 854.076 139.857C854.821 141.1 856.841 142.871 860.367 144.13C859.606 145.124 856.841 146.631 854.076 146.134C861.874 151.913 869.688 154.429 879.243 155.936C876.229 158.204 872.951 160.208 869.688 162.477C870.434 163.471 873.961 165.988 875.219 165.988C873.199 169.763 868.679 171.269 864.142 170.757C869.424 179.814 877.736 187.1 887.554 190.875C884.54 192.382 881.262 193.64 877.736 194.634C879.755 196.654 882.52 197.912 884.54 197.912C881.511 201.175 878.233 201.175 875.468 200.165C883.282 205.695 893.846 212.981 903.415 212.236C899.889 219.273 893.597 221.277 886.047 222.038C887.802 223.033 889.573 223.545 891.577 223.297C889.325 226.062 885.534 227.305 882.023 227.056C891.329 232.09 901.66 234.855 913.234 234.606C909.956 239.376 906.429 242.638 899.392 245.155C902.654 244.658 905.683 244.145 908.697 243.648C906.181 244.409 906.942 249.178 909.707 249.924C912.472 250.934 915.253 249.178 917.009 246.91C918.018 252.953 914.243 254.957 911.478 256.713C913.482 257.226 915.75 256.713 917.257 255.455ZM273.806 270.788C277.068 268.784 281.107 266.516 280.097 259.727C278.078 262.243 274.816 264.263 271.786 263.253C268.772 262.243 267.763 256.961 270.776 255.967C267.25 256.464 263.739 257.226 260.212 257.723C268.26 254.709 272.547 251.182 276.074 245.652C262.729 245.916 250.891 242.887 240.327 236.859C244.351 237.108 248.623 235.601 251.404 232.587C249.136 232.835 246.868 232.338 245.097 231.328C253.657 230.583 260.958 228.315 264.997 220.019C253.921 221.029 242.083 212.484 233.026 206.208C236.288 207.451 239.815 207.451 243.59 203.691C241.322 203.691 238.059 202.433 235.791 200.165C239.566 199.171 243.341 197.648 247.116 195.893C235.791 191.621 226.222 183.325 220.427 172.776C225.46 173.274 230.758 171.767 233.274 167.494C231.768 167.494 227.728 164.729 226.983 163.471C230.758 160.97 234.284 158.453 238.059 155.936C227.231 154.429 218.159 151.167 209.102 144.875C212.38 145.388 215.393 143.617 216.403 142.623C212.38 141.364 210.112 139.096 209.35 137.589C214.648 136.828 216.9 134.078 218.423 130.303C217.164 130.8 212.877 131.562 210.112 129.045C212.38 128.035 214.648 125.27 215.145 122.256C210.112 125.021 203.571 119.739 201.8 118.481C203.82 117.735 205.824 116.725 207.595 115.467C201.055 114.209 194.747 110.449 190.724 104.919C190.226 104.422 189.978 103.909 189.714 103.412C184.929 98.627 184.432 90.3468 182.925 73.5066C179.15 88.8398 177.892 101.392 173.852 107.187C167.561 115.731 160.772 116.974 161.02 117.735C162.776 120.501 166.566 121.246 169.332 120.998C164.795 124.011 160.011 126.528 154.977 128.548C156.748 130.552 159.513 131.562 162.279 131.313C159.762 133.317 157.245 135.321 154.977 137.341C156.484 137.838 158.007 138.35 159.265 138.848C151.451 147.392 140.374 152.922 128.8 153.932C129.81 161.964 136.102 168.753 143.901 171.021C141.384 174.532 136.351 175.542 134.082 176.287C135.589 180.062 140.126 182.331 145.159 182.331C144.662 183.325 144.398 184.335 143.901 185.344C143.139 186.851 142.394 188.11 141.881 188.607C138.867 193.376 135.092 197.912 131.069 201.92C128.8 204.189 126.284 206.457 123.767 208.461C122.757 209.222 117.211 214.24 116.217 213.991C120.241 215.747 125.025 216.756 129.298 216.756C120.986 224.804 110.919 231.328 100.091 235.601C102.36 242.141 107.657 247.423 114.197 249.924C111.432 251.944 105.637 254.957 102.608 256.713C105.886 257.723 110.422 257.723 113.949 256.464C110.919 259.727 106.647 264.76 101.614 266.764C102.608 268.535 105.389 269.032 108.403 269.281C101.614 274.811 93.5511 279.084 84.9912 281.6C84.7427 281.6 95.058 289.632 96.5805 290.145C101.614 292.397 106.647 292.397 112.178 292.397C120.986 292.397 127.029 291.652 134.58 286.618C132.063 290.393 128.8 293.92 125.274 296.669C138.619 298.938 152.709 294.665 162.527 285.624C158.504 289.632 154.729 293.656 150.705 297.679C165.293 303.21 182.676 299.947 194.499 289.632C195.757 288.638 197.015 287.379 198.538 287.379C199.796 287.379 200.79 287.876 201.8 288.389C217.164 295.675 236.04 299.186 250.643 290.642C247.878 291.403 244.6 290.393 242.844 288.125C251.14 288.125 259.451 286.618 267.25 284.117C270.776 282.859 274.551 281.6 277.068 278.835C279.585 276.07 281.356 272.807 280.346 269.281C278.591 270.788 276.074 271.3 273.806 270.788ZM651.668 263.005C653.175 267.277 650.922 271.3 647.644 274.314C644.366 277.328 640.094 279.084 635.806 280.59C626.237 283.604 616.418 285.36 606.352 285.36C608.868 287.876 612.643 289.135 615.921 288.389C598.304 298.689 575.639 294.417 557.261 285.624C556.002 285.111 554.744 284.614 553.237 284.614C551.481 284.863 549.959 286.121 548.452 287.379C534.362 299.699 513.218 303.458 495.834 296.934C500.619 292.149 505.404 287.379 510.189 282.61C498.351 293.656 481.247 298.689 465.386 295.924C467.39 294.417 469.161 292.661 470.916 290.89C460.849 295.924 448.514 294.168 437.686 289.896C435.418 289.383 433.15 288.886 431.146 287.876C430.897 287.876 430.897 287.628 430.633 287.628C429.888 287.876 429.126 288.638 428.365 289.135C419.308 297.182 405.466 299.699 393.877 295.427C396.906 292.149 400.184 289.135 403.198 285.872C395.4 293.158 384.323 296.421 373.744 294.665C376.773 292.397 379.29 289.632 381.294 286.618C375.25 290.642 370.73 291.154 363.677 291.154C359.389 291.154 355.365 291.154 351.342 289.383C350.332 288.886 342.021 282.61 342.269 282.61C348.825 280.59 355.117 277.328 360.647 272.807C358.131 272.543 356.127 272.295 355.365 270.788C359.389 269.281 362.667 265.257 365.184 262.741C362.17 263.75 358.643 263.75 356.127 263.005C358.395 261.746 362.916 259.23 365.184 257.723C360.15 255.719 355.878 251.695 354.107 246.413C362.418 243.151 370.466 237.869 377.021 231.577C373.246 231.577 369.72 231.08 366.442 229.573C367.203 230.07 371.724 225.798 372.485 225.301C374.505 223.545 376.509 221.79 378.28 220.019C381.542 216.756 384.323 213.23 386.84 209.47C387.088 208.958 387.585 207.715 388.347 206.705C388.844 205.695 389.108 204.95 389.356 204.189C385.317 204.189 381.806 202.433 380.548 199.419C382.303 198.658 386.327 197.912 388.347 195.147C382.303 193.376 377.519 187.861 376.509 181.569C385.581 180.56 394.141 176.287 400.433 169.514C399.175 169.001 398.165 168.753 396.906 168.256C398.662 166.749 400.682 164.978 402.701 163.471C400.433 163.719 398.413 162.725 396.906 161.218C400.93 159.711 404.705 157.692 408.232 155.175C405.963 155.175 403.198 154.678 401.691 152.41C401.443 151.913 406.725 150.903 411.758 144.13C415.285 139.593 416.03 129.542 419.06 116.974C420.069 130.303 420.567 136.828 424.342 140.603C424.59 141.1 424.854 141.364 425.103 141.861C428.365 146.134 433.15 149.147 438.448 150.157C436.925 151.167 435.418 151.913 433.663 152.674C434.921 153.668 440.203 157.94 444.227 155.688C443.729 158.453 441.974 160.457 440.203 161.218C442.471 163.222 445.749 162.477 446.743 162.212C445.749 165.242 443.978 167.494 439.706 168.007C440.203 169.25 441.974 171.021 445.236 172.015C444.491 172.776 441.974 174.035 439.457 173.786C446.495 178.804 453.796 181.321 462.356 182.579C459.342 184.583 456.562 186.603 453.548 188.607C454.309 189.617 457.323 191.869 458.581 191.869C456.826 195.147 452.538 196.654 448.514 196.141C451.28 201.175 455.055 205.447 459.591 208.709C463.366 205.944 466.892 202.93 470.419 199.668C464.873 199.668 459.591 198.658 454.557 196.405C455.816 196.903 462.605 190.875 463.615 189.865C466.644 187.348 469.658 184.583 472.423 181.818C477.456 177.049 481.744 171.518 485.519 165.739C486.016 164.978 486.777 163.471 487.787 161.715C488.284 160.706 488.797 159.447 489.294 158.204C483.002 157.94 477.72 155.439 475.949 150.903C478.715 150.157 484.758 148.899 487.787 144.627C478.466 142.11 470.916 133.814 469.658 124.276C483.5 122.769 496.844 116.228 506.165 105.929C504.394 105.167 502.639 104.67 500.868 103.909C503.649 101.392 506.662 99.1397 509.692 96.623C506.662 97.1201 503.136 95.8773 501.132 93.3606C507.424 91.0924 513.218 88.0786 518.5 84.3036C514.974 84.5677 510.686 83.5579 508.433 80.28C507.921 79.5343 515.984 78.0274 523.782 67.7275C529.064 60.6901 530.323 45.6055 534.859 26.4972C536.366 46.8638 537.127 56.6665 542.922 62.4456C543.17 63.1913 543.667 63.7039 544.18 64.4496C548.965 70.9899 556.266 75.5107 564.314 77.0176C562.045 78.5245 559.777 79.7828 557.261 80.7926C559.28 82.2995 567.343 88.5757 573.371 85.3134C572.873 89.337 570.108 92.5994 567.343 93.6091C570.605 97.1201 575.639 95.8773 577.161 95.3646C575.39 99.8854 572.873 103.163 566.333 104.158C567.343 105.929 569.86 108.43 574.893 110.201C573.635 111.459 569.86 113.463 566.085 112.966C576.897 120.501 587.725 124.276 600.821 126.28C596.285 129.293 592.013 132.307 587.476 135.321C588.486 137.092 593.271 140.354 595.027 140.354C592.261 145.636 585.705 147.64 579.678 146.895C586.715 159.711 598.304 169.514 611.898 174.78C607.61 177.049 603.089 178.804 598.304 180.062C601.07 182.579 604.845 184.335 607.61 184.335C603.338 188.855 598.802 188.855 595.027 187.348C606.103 195.147 620.209 205.198 633.538 204.189C628.769 213.991 619.945 216.756 609.63 217.766C611.898 219.025 614.663 219.522 617.18 219.273C613.653 222.784 608.62 224.54 603.835 224.291C616.418 231.328 630.773 235.352 646.634 234.855C642.098 241.131 637.313 245.652 627.495 249.178C631.783 248.681 635.806 247.92 640.094 247.159C636.319 248.169 637.577 254.709 641.352 255.719C645.127 256.961 648.903 254.46 651.419 251.431C652.429 259.727 647.396 262.243 643.621 264.76C646.386 265.506 649.664 264.76 651.668 263.005ZM467.141 288.389C468.399 289.383 470.155 290.145 471.926 289.896C472.687 289.135 473.433 288.125 474.194 287.379C472.423 287.628 470.667 287.628 468.896 287.876C468.151 288.125 467.638 288.389 467.141 288.389ZM1093.99 284.863C1092.48 286.121 1090.46 286.618 1088.44 286.121C1091.22 284.366 1094.48 282.61 1093.74 276.815C1091.97 278.835 1089.2 280.59 1086.68 279.845C1084.17 279.084 1083.16 274.563 1085.92 273.802C1082.91 274.314 1080.14 274.811 1077.11 275.309C1083.92 272.807 1087.18 269.778 1090.46 265.257C1079.38 265.506 1069.56 263.005 1060.76 257.971C1064.03 258.22 1067.54 256.962 1069.81 254.46C1068.06 254.709 1066.04 254.196 1064.53 253.451C1071.58 252.689 1077.63 250.934 1081.15 244.145C1071.83 244.906 1062.01 237.869 1054.46 232.587C1057.23 233.597 1060.26 233.597 1063.27 230.583C1061.25 230.583 1058.74 229.324 1056.73 227.569C1059.99 226.808 1063.02 225.549 1066.04 224.042C1056.73 220.532 1048.67 213.494 1043.88 204.95C1048.17 205.447 1052.44 203.94 1054.46 200.413C1053.21 200.413 1049.93 198.161 1049.18 196.903C1052.2 194.898 1055.21 192.63 1058.24 190.611C1049.18 189.368 1041.62 186.603 1034.31 181.321C1037.1 181.818 1039.61 180.311 1040.36 179.301C1036.85 178.058 1035.08 176.287 1034.31 175.029C1038.85 174.532 1040.62 172.015 1041.88 169.001C1040.87 169.514 1037.34 170.26 1035.08 167.743C1037.1 166.997 1038.85 164.729 1039.36 161.964C1035.32 164.232 1029.79 159.96 1028.29 158.95C1030.04 158.204 1031.55 157.443 1033.32 156.433C1027.77 155.439 1022.74 152.161 1019.46 147.64C1019.21 147.143 1018.97 146.631 1018.47 146.382C1014.43 142.359 1013.93 135.585 1012.92 121.51C1009.64 134.824 1008.9 145.124 1005.37 149.909C1000.09 157.195 994.296 158.204 994.793 158.702C996.316 160.97 999.329 161.715 1001.85 161.467C998.071 163.983 994.047 166.236 989.76 167.743C991.267 169.514 993.535 170.26 995.803 170.011C993.783 171.767 991.779 173.274 989.76 175.029C991.018 175.542 992.276 175.79 993.286 176.287C986.746 183.325 977.673 187.861 968.119 188.855C969.114 195.396 974.162 201.175 980.703 202.93C978.683 205.695 974.411 206.705 972.64 207.202C973.898 210.48 977.673 212.236 981.961 212.236C981.713 212.981 981.2 213.991 980.951 214.752C980.19 215.995 979.693 217.005 979.444 217.502C976.928 221.526 973.898 225.301 970.372 228.563C968.368 230.583 966.348 232.338 964.344 234.094C963.583 234.606 958.798 238.879 958.037 238.614C961.563 240.121 965.338 240.883 969.114 240.883C962.076 247.671 954.013 252.953 944.956 256.464C946.96 261.995 951.248 266.267 956.53 268.535C954.262 270.291 949.477 272.807 946.96 274.05C949.741 274.811 953.516 274.811 956.53 273.802C954.013 276.567 950.487 280.839 946.215 282.346C946.96 283.853 949.229 284.366 951.745 284.366C945.966 288.886 939.41 292.397 932.373 294.665C932.109 294.665 940.669 301.454 941.927 301.951C946.215 303.707 950.238 303.971 954.775 303.971C962.076 303.971 967.109 303.21 973.401 299.186C971.382 302.464 968.616 305.229 965.603 307.73C976.679 309.75 988.501 306.224 996.564 298.44C993.286 301.703 990.008 304.965 986.746 308.492C998.832 313.012 1013.42 310.496 1022.99 301.951C1024 301.206 1025.01 300.196 1026.27 299.947C1027.28 299.947 1028.02 300.196 1029.03 300.693C1041.88 306.736 1057.48 309.75 1069.56 302.713C1067.3 303.21 1064.53 302.464 1063.02 300.693C1069.81 300.693 1076.87 299.435 1083.41 297.431C1086.44 296.421 1089.45 295.162 1091.72 293.158C1093.49 291.154 1095 287.628 1093.99 284.863Z" fill="#F2ABA7"/>
</g>
<path d="M995.352 278.952C996.098 281.468 995.088 284.233 993.084 285.989C991.312 287.744 988.795 288.754 986.278 289.499C980.747 291.27 975.201 292.264 969.405 292.264C970.664 293.787 972.932 294.532 974.952 294.035C964.884 299.814 951.786 297.546 941.205 292.528C940.46 292.264 939.698 291.767 938.953 291.767C937.943 291.767 936.933 292.528 936.171 293.274C928.123 300.311 916.035 302.579 906.216 298.804C908.982 296.039 911.763 293.274 914.528 290.509C907.723 296.8 897.904 299.814 888.846 298.307C891.363 296.287 893.631 294.035 895.387 291.27C890.104 294.781 886.08 295.293 880.036 295.293C876.26 295.293 872.734 295.029 869.207 293.787C868.197 293.274 861.143 287.744 861.407 287.744C867.187 285.989 872.734 283.224 877.519 279.2C875.251 278.952 873.479 278.703 872.734 277.445C876.26 276.187 879.026 272.676 881.294 270.408C878.777 271.169 875.748 271.169 873.479 270.657C875.499 269.398 879.523 267.395 881.543 265.888C877.006 264.132 873.479 260.358 871.972 256.086C879.523 253.072 886.328 248.552 892.124 243.022C889.094 243.022 885.816 242.509 883.05 241.251C883.811 241.515 887.587 237.989 888.333 237.492C890.104 235.985 891.86 234.478 893.382 232.972C896.148 230.207 898.665 226.929 900.933 223.667C901.182 223.17 901.679 222.409 902.192 221.399C902.44 220.653 902.689 219.892 902.938 219.395C899.411 219.395 896.397 217.888 895.387 215.123C896.894 214.626 900.421 213.865 902.192 211.597C896.894 210.09 892.621 205.321 891.86 199.791C899.675 199.046 907.474 195.271 912.757 189.244C911.763 188.98 910.753 188.483 909.743 188.234C911.499 186.727 913.27 185.469 914.777 183.962C913.021 184.211 911.001 183.465 909.743 181.943C913.27 180.7 916.533 178.929 919.562 176.677C917.542 176.925 915.025 176.164 913.767 174.409C913.518 173.912 918.055 173.151 922.576 167.124C925.606 163.1 926.103 154.557 928.869 143.497C929.879 155.054 930.127 160.848 933.406 164.11C933.654 164.607 933.919 164.856 934.167 165.12C936.933 168.879 941.205 171.395 945.742 172.405C944.484 173.151 943.225 173.912 941.718 174.409C942.977 175.17 947.513 178.929 950.776 176.925C950.528 179.178 949.021 180.949 947.249 181.694C949.021 183.465 952.035 182.953 952.796 182.704C951.786 185.221 950.279 187.224 946.504 187.737C947.001 188.731 948.508 190.238 951.538 191.248C950.776 192.009 948.772 193.003 946.504 192.754C952.547 197.275 958.84 199.294 966.391 200.552C963.874 202.308 961.357 204.063 958.84 205.818C959.337 206.828 962.103 208.583 963.113 208.583C961.357 211.597 957.83 212.607 954.303 212.358C958.327 219.644 964.884 225.422 972.684 228.187C970.166 229.445 967.649 230.455 964.884 231.201C966.391 232.707 968.659 233.717 970.167 233.717C967.649 236.234 965.132 236.234 962.864 235.473C969.157 239.993 977.22 245.787 984.771 245.026C982.006 250.556 976.972 252.311 970.928 252.824C972.186 253.569 973.693 253.818 975.201 253.818C973.181 255.837 970.415 256.832 967.649 256.832C974.952 260.855 983 263.123 992.074 262.874C989.557 266.633 986.791 269.15 981.244 271.169C983.761 270.657 986.03 270.408 988.547 269.911C986.527 270.657 987.04 274.183 989.308 274.928C991.312 275.69 993.581 274.183 995.088 272.412C995.849 277.196 992.82 278.703 990.815 279.961C992.571 280.458 994.342 279.961 995.352 278.952ZM1217.16 306.089C1215.9 307.348 1214.39 307.845 1212.62 308.357C1209.1 309.616 1205.32 310.113 1201.54 310.113C1202.31 311.122 1203.81 311.619 1205.07 311.122C1198.53 314.881 1189.97 313.375 1182.92 310.113C1182.42 309.864 1181.91 309.616 1181.41 309.616C1180.65 309.616 1180.15 310.113 1179.64 310.61C1178.64 311.619 1177.12 312.381 1175.86 313.126L1175.61 313.375C1173.86 315.146 1171.34 316.14 1168.82 316.901C1163.28 318.656 1157.75 319.666 1151.95 319.666C1153.21 321.173 1155.48 321.918 1157.48 321.421C1147.41 327.2 1134.33 324.947 1123.75 319.914C1122.99 319.666 1122.24 319.153 1121.48 319.153C1120.47 319.153 1119.46 319.914 1118.72 320.676C1110.65 327.697 1098.56 329.965 1088.75 326.19C1091.53 323.425 1094.29 320.676 1097.06 317.911C1090.27 324.186 1080.45 327.2 1071.37 325.693C1073.89 323.689 1076.16 321.421 1077.93 318.656C1072.63 322.182 1068.61 322.679 1062.57 322.679C1058.79 322.679 1055.26 322.431 1051.74 321.173C1050.74 320.676 1043.69 315.146 1043.94 315.146C1049.73 313.375 1055.26 310.61 1060.05 306.602C1057.78 306.338 1056.02 306.089 1055.26 304.831C1058.79 303.573 1061.56 300.062 1063.82 297.794C1061.31 298.555 1058.29 298.555 1056.02 298.058C1058.03 296.8 1062.07 294.781 1064.07 293.274C1059.55 291.519 1056.02 287.744 1054.52 283.472C1062.07 280.458 1068.86 275.938 1074.65 270.408C1071.64 270.408 1068.36 269.911 1065.6 268.653C1066.34 268.901 1070.12 265.375 1070.88 264.878C1072.63 263.371 1074.4 261.864 1075.91 260.358C1078.68 257.593 1081.19 254.331 1083.46 251.053C1083.71 250.556 1084.22 249.795 1084.72 248.801C1084.97 248.039 1085.23 247.294 1085.48 246.781C1081.96 246.781 1078.93 245.274 1077.93 242.509C1079.44 242.012 1082.97 241.251 1084.72 238.999C1079.44 237.492 1075.15 232.707 1074.4 227.177C1082.2 226.432 1090.02 222.657 1095.3 216.63C1094.29 216.381 1093.28 215.869 1092.27 215.62C1094.04 214.113 1095.8 212.855 1097.31 211.348C1095.55 211.597 1093.53 210.851 1092.27 209.345C1095.8 208.086 1099.08 206.331 1102.09 204.063C1100.09 204.312 1097.57 203.566 1096.31 201.795C1096.05 201.298 1100.58 200.552 1105.12 194.51C1108.14 190.487 1108.65 181.943 1111.41 170.898C1112.42 182.456 1112.67 188.234 1115.95 191.496C1116.2 192.009 1116.45 192.257 1116.7 192.506C1119.46 196.281 1123.75 198.782 1128.29 199.791C1127.03 200.552 1125.77 201.298 1124.25 201.795C1125.51 202.556 1130.04 206.331 1133.32 204.312C1133.07 206.58 1131.55 208.335 1129.79 209.096C1131.55 210.851 1134.58 210.354 1135.33 210.09C1134.33 212.607 1132.81 214.626 1129.03 215.123C1129.55 216.133 1131.05 217.64 1134.07 218.634C1133.32 219.395 1131.3 220.405 1129.03 220.141C1135.08 224.676 1141.37 226.68 1148.92 227.939C1146.4 229.694 1143.89 231.449 1141.37 233.22C1141.88 234.214 1144.65 235.985 1145.66 235.985C1143.89 238.999 1140.36 239.993 1136.85 239.744C1140.62 246.533 1146.92 252.063 1153.97 255.076C1151.95 253.569 1150.44 251.301 1150.18 248.801C1155.48 248.288 1160.51 245.787 1164.04 242.012C1163.28 241.764 1162.78 241.515 1162.02 241.251C1163.03 240.257 1164.29 239.496 1165.3 238.486C1164.04 238.486 1162.78 238.238 1162.02 237.243C1164.29 236.482 1166.56 235.224 1168.56 233.717C1167.3 233.717 1165.55 233.469 1164.78 232.21C1164.54 231.962 1167.56 231.449 1170.58 227.442C1172.6 224.925 1172.85 219.146 1174.6 211.861C1175.12 219.395 1175.36 223.17 1177.63 225.422C1177.88 225.671 1177.88 225.935 1178.13 226.183C1179.9 228.684 1182.67 230.455 1185.68 230.952C1184.94 231.449 1183.93 231.962 1182.92 232.459C1183.68 232.972 1186.69 235.472 1188.96 234.214C1188.71 235.721 1187.7 236.979 1186.69 237.243C1187.95 238.486 1189.72 237.989 1190.47 237.74C1189.97 239.496 1188.96 240.754 1186.44 241.003C1186.69 241.764 1187.7 242.758 1189.72 243.27C1189.21 243.768 1187.95 244.529 1186.44 244.28C1190.47 247.294 1194.49 248.552 1199.54 249.298C1197.77 250.556 1196.26 251.566 1194.49 252.824C1195 253.569 1196.76 254.579 1197.27 254.579C1196.26 256.583 1193.74 257.344 1191.48 257.096C1194.24 261.864 1198.53 265.639 1203.56 267.643C1202.06 268.404 1200.29 269.15 1198.53 269.647C1199.54 270.657 1201.05 271.418 1202.06 271.418C1200.29 273.173 1198.78 273.173 1197.27 272.412C1201.3 275.441 1206.84 279.2 1211.61 278.703C1209.86 282.478 1206.33 283.472 1202.55 283.721C1203.32 284.233 1204.31 284.482 1205.32 284.233C1204.06 285.491 1202.06 286.237 1200.29 286.237C1205.07 289.002 1210.35 290.26 1216.4 290.26C1214.64 292.777 1212.87 294.284 1209.1 295.79C1210.62 295.542 1212.37 295.293 1213.88 295.029C1212.37 295.542 1212.87 297.794 1214.39 298.307C1215.9 298.804 1217.16 297.794 1218.17 296.8C1218.67 299.814 1216.66 300.808 1215.4 301.818C1216.4 302.066 1217.66 301.818 1218.42 301.072C1219.18 303.324 1218.42 305.095 1217.16 306.089ZM1152.71 261.616C1150.18 264.132 1147.66 264.132 1145.41 263.371C1147.93 265.127 1150.44 266.897 1153.21 268.653C1154.22 267.643 1154.96 266.385 1155.73 265.127C1155.97 264.878 1156.22 264.381 1156.74 263.62C1156.98 263.123 1156.98 262.61 1157.23 262.362C1154.96 262.362 1152.96 261.367 1152.2 259.597C1153.21 259.348 1155.48 258.851 1156.74 257.096C1155.97 256.832 1155.48 256.583 1154.72 256.334C1152.45 257.593 1149.93 258.602 1147.16 259.348C1148.92 260.855 1150.94 261.616 1152.71 261.616ZM161.975 305.095C164.492 303.573 167.506 301.818 166.76 296.8C165.238 298.555 162.721 300.311 160.452 299.565C158.199 298.804 157.438 294.781 159.707 294.035C157.19 294.532 154.408 294.781 151.891 295.293C157.935 293.025 161.214 290.26 163.979 286.237C153.911 286.486 145.102 284.233 137.038 279.713C140.068 279.961 143.33 278.703 145.35 276.435C143.595 276.684 142.072 276.187 140.565 275.441C147.122 274.928 152.404 273.173 155.667 266.897C147.37 267.643 138.296 261.367 131.507 256.334C134.024 257.344 136.541 257.344 139.306 254.579C137.551 254.579 135.282 253.569 133.511 251.814C136.541 251.053 139.306 250.059 142.072 248.552C133.511 245.274 126.473 238.999 121.936 231.201C125.711 231.713 129.736 230.455 131.507 227.177C130.497 227.177 127.483 225.174 126.721 224.164C129.487 222.16 132.253 220.405 135.034 218.385C126.721 217.127 119.916 214.875 113.375 210.09C115.892 210.354 118.16 209.096 118.922 208.335C115.892 207.325 114.136 205.57 113.624 204.56C117.663 204.063 119.419 201.795 120.429 199.046C119.419 199.294 116.405 200.04 114.136 198.036C115.892 197.275 117.663 195.271 117.912 193.003C114.136 195.022 109.102 191.248 107.844 190.238C109.351 189.741 110.858 188.98 112.365 187.986C107.331 186.976 102.794 184.211 99.7801 179.939C99.5315 179.442 99.2829 179.178 99.0188 178.681C95.2433 175.17 94.9947 168.879 93.9848 156.312C90.9706 168.382 90.2092 177.671 87.1951 181.943C82.4096 188.483 77.3756 189.492 77.6242 189.741C78.8827 191.745 81.6483 192.506 83.9167 192.257C80.6384 194.51 76.8629 196.529 73.0874 198.036C74.3459 199.543 76.6143 200.288 78.6341 200.04C76.8629 201.547 74.8586 203.053 73.0874 204.56C74.0973 205.073 75.3558 205.321 76.3657 205.818C70.5704 212.358 62.2736 216.381 53.4486 217.127C54.2099 223.17 58.9953 228.436 64.7906 229.942C63.0194 232.459 58.9953 233.469 57.4882 233.966C58.4826 236.731 62.0095 238.486 65.785 238.486C65.5364 239.247 65.2878 239.993 65.0392 240.754C64.2779 241.764 63.7807 242.758 63.5321 243.27C61.2637 246.781 58.4826 250.307 55.4684 253.321C53.7127 255.076 51.9415 256.832 49.9216 258.338C49.1759 258.851 44.8876 262.874 44.1419 262.362C47.156 263.62 50.683 264.381 54.2099 264.381C47.9174 270.408 40.3663 275.441 32.3026 278.703C34.0738 283.721 38.0979 287.744 42.8834 289.499C40.8635 291.022 36.3267 293.274 34.0738 294.532C36.5908 295.293 39.8536 295.293 42.6348 294.284C40.3663 296.8 37.088 300.559 33.3125 302.066C34.0738 303.324 36.0781 303.837 38.3465 304.085C33.0639 308.357 27.2686 311.371 20.7275 313.375C20.4789 313.375 28.2785 319.417 29.2884 319.914C33.0639 321.421 36.8394 321.67 41.1121 321.67C47.9174 321.67 52.19 321.173 57.9854 317.398C55.9656 320.412 53.7127 322.928 50.9315 324.947C60.9996 326.703 71.5803 323.425 78.8827 316.404C75.8685 319.417 72.8388 322.431 69.8246 325.444C80.9025 329.468 93.9848 327.2 102.794 319.417C103.556 318.656 104.565 317.911 105.824 317.647C106.585 317.647 107.58 317.911 108.341 318.408C119.916 323.938 134.024 326.703 145.102 320.163C143.082 320.676 140.565 319.914 139.058 318.408C145.35 318.408 151.643 317.398 157.438 315.394C160.204 314.633 162.969 313.375 164.989 311.371C167.009 309.367 168.267 306.338 167.506 303.573C165.75 305.095 163.731 305.592 161.975 305.095ZM422.563 270.657C425.328 268.901 429.104 266.897 428.342 260.855C426.587 263.123 423.557 264.878 420.791 264.132C418.026 263.371 417.264 258.602 419.781 257.841C416.767 258.338 413.489 258.851 410.475 259.348C417.777 256.583 421.304 253.569 424.567 248.801C412.743 249.049 402.162 246.284 392.84 241.003C396.367 241.251 400.143 239.744 402.66 237.243C400.655 237.492 398.636 236.979 397.128 235.985C404.679 235.224 411.221 233.22 414.747 225.935C404.928 226.68 394.363 219.146 386.299 213.616C389.065 214.626 392.343 214.626 395.621 211.348C393.602 211.348 390.836 210.09 388.816 208.086C392.343 207.077 395.621 205.818 398.884 204.312C388.816 200.552 380.255 193.003 375.221 183.714C379.758 184.211 384.543 182.704 386.548 178.929C385.289 178.929 381.762 176.428 381.017 175.17C384.279 172.902 387.558 170.634 390.836 168.382C381.265 166.875 373.201 164.11 365.153 158.58C367.919 159.077 370.684 157.57 371.694 156.576C368.167 155.318 366.163 153.298 365.402 152.04C370.187 151.295 372.207 148.778 373.466 145.516C372.207 146.013 368.68 146.774 366.163 144.258C368.167 143.497 370.187 140.98 370.684 138.231C366.412 140.732 360.368 135.963 358.861 134.953C360.616 134.207 362.388 133.446 364.143 132.188C358.348 131.194 352.817 127.668 349.29 122.899C349.041 122.386 348.529 121.889 348.28 121.392C344.007 117.12 343.495 109.819 342.236 95C338.709 109.074 337.963 120.382 334.188 125.4C328.392 133.198 322.597 134.207 322.846 134.704C324.368 137.221 327.631 137.967 330.412 137.718C326.373 140.483 322.1 142.751 317.563 144.506C319.07 146.262 321.587 147.271 323.856 147.023C321.587 148.778 319.583 150.533 317.315 152.553C318.573 153.05 319.832 153.547 321.09 154.06C314.036 161.594 304.481 166.627 294.149 167.621C295.159 174.658 300.69 180.949 307.495 182.704C305.227 185.718 300.69 186.727 298.686 187.473C299.944 190.999 303.968 192.754 308.505 192.754C308.256 193.764 307.744 194.51 307.495 195.519C306.734 196.778 305.988 198.036 305.739 198.533C302.958 202.805 299.696 206.828 296.169 210.354C294.149 212.358 291.88 214.362 289.612 216.133C288.866 216.878 283.832 221.399 282.822 220.902C286.598 222.409 290.622 223.418 294.662 223.17C287.095 230.455 278.285 235.985 268.715 239.993C270.734 245.787 275.52 250.556 281.315 252.824C278.798 254.579 273.764 257.344 270.983 258.851C273.764 259.597 277.788 259.597 281.051 258.602C278.285 261.616 274.51 266.136 270.237 267.643C270.983 269.15 273.5 269.647 276.281 269.911C270.237 274.928 263.183 278.455 255.632 280.707C255.384 280.707 264.69 287.992 265.7 288.505C270.237 290.509 274.759 290.509 279.544 290.509C287.359 290.509 292.642 289.763 299.431 285.491C297.179 289.002 294.397 292.016 291.135 294.532C302.958 296.536 315.559 292.777 324.12 284.73C320.593 288.256 317.066 291.767 313.539 295.293C326.373 300.062 341.987 297.297 352.304 288.256C353.314 287.247 354.572 286.237 355.831 286.237C356.841 286.237 357.851 286.75 358.861 286.998C372.456 293.522 389.329 296.536 402.162 289.002C399.645 289.499 396.88 288.754 395.109 286.75C402.411 286.75 409.713 285.491 416.767 283.224C420.046 282.214 423.06 280.956 425.577 278.455C428.094 276.187 429.352 272.676 428.342 269.398C427.084 270.657 424.567 271.169 422.563 270.657ZM690.189 244.016C692.457 242.509 695.223 241.251 694.477 236.482C692.97 238.238 690.95 239.496 688.681 238.999C686.662 238.238 685.916 234.727 687.92 234.214C685.667 234.727 683.15 234.975 680.882 235.473C686.413 233.469 689.179 230.952 691.711 227.442C682.638 227.69 674.589 225.422 667.536 221.399C670.301 221.663 673.067 220.653 675.087 218.634C673.579 218.898 672.072 218.385 670.814 217.64C676.594 217.127 681.628 215.62 684.409 209.842C676.842 210.354 668.794 204.824 662.75 200.288C665.019 201.05 667.287 201.05 669.804 198.533C668.281 198.533 666.028 197.523 664.506 196.017C667.287 195.271 669.804 194.261 672.072 193.003C664.506 189.989 657.965 184.459 653.941 177.174C657.468 177.671 660.994 176.428 662.75 173.663C661.74 173.663 658.975 171.893 658.462 170.898C660.994 169.127 663.511 167.372 666.028 165.865C658.726 164.856 652.434 162.603 646.39 158.331C648.642 158.58 650.662 157.57 651.424 156.825C648.642 155.815 647.135 154.308 646.638 153.298C650.414 152.801 651.921 150.782 652.682 148.281C651.672 148.53 648.907 149.275 647.135 147.271C648.642 146.774 650.165 144.755 650.662 142.502C647.384 144.506 642.863 140.732 641.604 139.986C643.111 139.473 644.37 138.728 645.628 137.967C641.091 137.221 637.067 134.456 634.302 130.681C634.053 130.433 633.789 129.936 633.54 129.672C630.278 126.409 630.014 120.879 629.019 109.322C626.487 120.134 625.741 128.677 622.711 132.701C618.438 138.479 613.653 139.473 613.902 139.737C615.16 141.493 617.677 142.238 619.697 141.99C616.667 144.009 613.404 145.765 609.877 147.023C611.136 148.281 612.892 149.027 614.663 149.027C612.892 150.533 611.385 151.792 609.629 153.298C610.639 153.547 611.633 154.06 612.643 154.308C607.36 160.087 599.809 163.862 591.994 164.607C592.756 169.889 597.044 174.658 602.326 176.164C600.555 178.432 597.044 179.178 595.77 179.69C596.78 182.207 599.809 183.714 603.336 183.714C603.072 184.459 602.824 184.972 602.575 185.718C602.078 186.727 601.565 187.473 601.317 187.986C599.297 191.248 596.78 194.261 594.014 197.026C592.507 198.533 590.736 200.04 588.98 201.547C588.483 202.059 584.443 205.57 583.946 205.321C586.712 206.58 589.741 207.077 593.004 207.077C587.224 212.607 580.668 216.878 573.117 219.892C574.624 224.412 578.399 227.939 582.688 229.694C580.916 231.201 576.892 233.22 574.872 234.214C577.141 234.727 580.171 234.727 582.688 233.966C580.668 236.234 577.654 239.744 574.375 241.003C574.872 242.261 576.892 242.509 578.912 242.758C574.127 246.533 568.844 249.298 563.049 251.053C562.8 251.053 569.838 256.583 570.848 256.832C574.375 258.338 577.654 258.338 581.429 258.338C587.473 258.338 591.497 257.841 596.531 254.331C594.775 256.832 592.507 259.348 590.239 261.103C599.297 262.61 608.868 259.861 615.673 253.569C612.892 256.334 610.375 259.099 607.609 261.616C617.429 265.375 629.268 263.123 637.316 256.334C638.077 255.589 639.087 254.828 640.097 254.828C640.843 254.828 641.604 255.076 642.35 255.589C652.682 260.606 665.516 262.874 675.584 257.096C673.579 257.593 671.56 256.832 670.301 255.325C675.848 255.325 681.628 254.331 686.926 252.56C689.443 251.814 691.711 250.804 693.715 249.049C695.487 247.294 696.745 244.529 695.984 242.012C693.467 244.016 691.711 244.529 690.189 244.016Z" fill="#F7C3C2"/>
<mask id="mask1_95_1793" style="mask-type:luminance" maskUnits="userSpaceOnUse" x="13" y="242" width="1301" height="214">
<path d="M13 242.126H1314V455.517H13V242.126Z" fill="white"/>
</mask>
<g mask="url(#mask1_95_1793)">
<path d="M1314 297.68C1251.54 288.125 1152.68 323.825 977.816 286.121C799.054 247.423 816.235 237.869 711.897 247.423C607.558 256.962 572.683 283.356 371.296 280.591C169.894 277.826 105.104 282.859 13.2578 323.561V453.762L514.653 454.259L752.489 454.507L1314 455.004V297.68Z" fill="#FCCAC7"/>
</g>
<mask id="mask2_95_1793" style="mask-type:luminance" maskUnits="userSpaceOnUse" x="297" y="262" width="581" height="194">
<path d="M297.325 262.01H877.968V455.517H297.325V262.01Z" fill="white"/>
</mask>
<g mask="url(#mask2_95_1793)">
<path d="M873.96 346.693C858.347 312.764 658.72 260.488 573.883 265.257C625.988 270.042 764.701 306.223 757.4 346.693C750.098 387.146 622.725 375.837 521.016 365.288C429.126 355.983 337.499 369.809 299.982 374.081C356.623 387.146 432.901 419.071 498.863 454.507H728.458C729.716 453 731.471 451.741 732.978 450.732C751.108 433.643 798.179 402.728 865.649 376.598C874.209 366.049 877.984 355.734 873.96 346.693Z" fill="#FFECEB"/>
</g>
</g>
<defs>
<clipPath id="clip0_95_1793">
<rect width="1289" height="325" fill="white"/>
</clipPath>
</defs>
</svg>
