<svg width="75" height="81" viewBox="0 0 75 81" fill="none" xmlns="http://www.w3.org/2000/svg">
<rect width="75" height="81" fill="white"/>
<path d="M52.0423 38.3208L55.0796 37.7644L54.8035 36.2807L51.7662 36.8371L54.3433 33.1278L53.8831 32.8496C53.699 32.6642 53.4229 32.5714 53.2388 32.4787L53.0547 32.386L52.9627 32.5714C52.5025 33.2206 52.1343 33.777 51.6741 34.4261C51.0299 35.3534 50.3856 36.2807 49.7413 37.208L38.5124 39.2481L42.2861 33.6842C43.0224 33.5914 43.6667 33.4987 44.2189 33.406C44.8632 33.3133 45.5995 33.3133 46.3358 33.1278H46.612L46.4279 31.6441L43.2985 32.015C43.3906 31.9223 43.3905 31.8296 43.4826 31.7368C43.6667 31.3659 43.9428 31.0877 44.1269 30.7168L44.2189 30.5313L43.0224 29.6967L42.01 31.1805L41.3657 28.3985L39.9851 28.6767L40.8134 32.7569L37.0398 38.2281L35.107 27.8421L38.5124 22.7418L37.3159 22L34.7388 25.7093L34.1866 22.7418L32.806 23.02L33.3582 25.9875L29.8607 23.4837L29.6766 23.7619C29.5846 23.8547 29.4925 24.0401 29.4005 24.1328C29.3085 24.2256 29.2164 24.411 29.1244 24.5038L29.0323 24.6892L33.6343 28.0276L35.5672 38.5062L29.4925 34.2406L28.388 29.8822L27.0074 30.2532L27.6517 32.9423L27.4676 32.8496C27.0995 32.5714 26.7313 32.2932 26.2711 32.015L25.995 31.8295L25.2587 33.0351L26.7313 34.0551L26.3632 34.1478C25.8109 34.2406 25.2587 34.2406 24.5224 34.4261H24.2463L24.3383 34.8897C24.3383 35.1679 24.4303 35.3534 24.4303 35.5388L24.5224 35.8171L28.5721 35.3534L34.7388 39.7117L24.7985 41.5664L19.8284 38.1354L19.6443 38.3208C19.4602 38.599 19.2761 38.8772 19.092 39.1554L19 39.3409L22.6816 41.9373C21.8532 42.1228 20.9328 42.3083 20.1045 42.401L19.6443 42.4937L19.9204 43.8847L22.8657 43.3283L22.6816 43.6065C21.9453 44.6265 21.2089 45.6466 20.5647 46.6666L20.3806 46.8521L21.5771 47.6867L24.8905 42.9574L34.9229 41.1027L31.0572 46.7594C30.505 46.8521 30.0448 46.8521 29.5846 46.9449C28.7562 47.0376 27.8358 47.1303 27.0074 47.3158L26.7313 47.4085L26.9154 48.8922L27.1915 48.7995C27.7438 48.7068 28.204 48.614 28.7562 48.614C29.1244 48.614 29.5846 48.5213 29.9527 48.4286L28.9403 49.9122L30.1368 50.7468L31.2413 49.1704C31.3333 49.5413 31.4254 50.005 31.5174 50.3759C31.6094 50.9323 31.7935 51.396 31.9776 51.9524L32.0696 52.2305L33.4502 51.8596L32.6219 47.9649L36.4876 42.3083L38.5124 53.1579L35.107 58.1654L35.291 58.3509C35.5672 58.5363 35.8433 58.8145 36.1194 58.9072L36.3035 59L38.8806 55.198L39.4328 58.2581L40.8134 57.9799L40.2612 54.9198L44.0348 57.3308L44.6791 56.4035L44.7712 56.0326L40.0771 52.8797L38.0522 42.03L44.8632 46.7594L45.9677 51.1178L46.2438 51.025C46.5199 50.9323 46.888 50.8396 47.1642 50.7468L47.4403 50.6541L46.796 47.9649L48.3607 49.0777L48.5448 48.7995C48.6368 48.7068 48.7289 48.5213 48.8209 48.4286C48.9129 48.3358 49.005 48.1503 49.097 48.0576L49.1891 47.8722L47.6244 46.7594C47.9005 46.7594 48.1766 46.6666 48.4527 46.6666C49.005 46.5739 49.5572 46.5739 50.1095 46.4812H50.3856L50.2015 44.9975H49.9254C48.4527 45.1829 47.3483 45.2757 45.8756 45.4611L39.0647 40.7318L50.1095 38.6917L55.1716 42.1228L55.3557 41.8446C55.4478 41.7519 55.4478 41.6591 55.5398 41.5664C55.6318 41.3809 55.8159 41.1955 55.908 41.01L56 40.8245L52.0423 38.3208Z" fill="#F2ABA7"/>
</svg>
